<svg width="1280" height="800" viewBox="0 0 1280 800" fill="none" xmlns="http://www.w3.org/2000/svg" role="img" font-family="'Inter','Segoe UI',system-ui,-apple-system,Helvetica,Arial,sans-serif">
  <title>Oscilla user interface preview</title>
  <desc>A mockup of the Oscilla oscilloscope web app: a top toolbar with live status and flash/export buttons, a left tool rail, a central scope screen showing a green sine wave and an amber square wave over a grid, a right panel with horizontal, vertical, trigger and measurement cards, a spectrum FFT panel, and a UART protocol decode table.</desc>
  <defs>
    <filter id="g" x="-10%" y="-40%" width="120%" height="180%">
      <feGaussianBlur stdDeviation="2.2" result="b"/>
      <feMerge><feMergeNode in="b"/><feMergeNode in="SourceGraphic"/></feMerge>
    </filter>
    <clipPath id="scr"><rect x="72" y="72" width="796" height="420" rx="10"/></clipPath>
  </defs>

  <rect x="0.5" y="0.5" width="1279" height="799" rx="18" fill="#0B0E14" stroke="#1E2636"/>

  <!-- top bar -->
  <rect x="16" y="14" width="28" height="28" rx="8" fill="#0A0F18" stroke="#28d39e" stroke-opacity="0.45"/>
  <path d="M21 30 Q25 23 29 29 Q33 35 39 25" fill="none" stroke="#34D399" stroke-width="2" stroke-linecap="round"/>
  <text x="54" y="36" font-size="20" font-weight="800" fill="#F4F6F8" letter-spacing="-0.5">Oscilla</text>

  <rect x="812" y="13" width="196" height="30" rx="15" fill="#0E1A16" stroke="#1f6b50"/>
  <circle cx="830" cy="28" r="4" fill="#34D399"/>
  <text x="844" y="32" font-size="13" font-weight="500" fill="#6ee7b7">Live · Pico @ 500 kS/s</text>
  <rect x="1018" y="13" width="120" height="30" rx="8" fill="#10241C" stroke="#28d39e" stroke-opacity="0.5"/>
  <text x="1078" y="32" font-size="13" font-weight="600" fill="#34D399" text-anchor="middle">Flash firmware</text>
  <rect x="1146" y="13" width="108" height="30" rx="8" fill="#121927" stroke="#2A3342"/>
  <text x="1200" y="32" font-size="13" fill="#C7D0DB" text-anchor="middle">Export CSV</text>

  <line x1="16" y1="56" x2="1264" y2="56" stroke="#161D2B"/>
  <line x1="56" y1="56" x2="56" y2="784" stroke="#161D2B"/>

  <!-- left rail -->
  <polygon points="22,78 22,92 34,85" fill="#34D399"/>
  <rect x="21" y="120" width="14" height="14" rx="2" fill="#6B7687"/>
  <polygon points="22,158 22,170 31,164" fill="#6B7687"/><rect x="33" y="156" width="3" height="16" fill="#6B7687"/>
  <line x1="16" y1="196" x2="42" y2="196" stroke="#1E2636"/>
  <rect x="4" y="214" width="48" height="36" rx="10" fill="#121927"/>
  <rect x="0" y="214" width="3" height="36" fill="#34D399"/>
  <path d="M16 232 Q22 224 28 232 Q34 240 40 232" fill="none" stroke="#34D399" stroke-width="2" stroke-linecap="round"/>
  <g fill="#6B7687"><rect x="18" y="272" width="4" height="10" rx="1"/><rect x="26" y="266" width="4" height="16" rx="1"/><rect x="34" y="270" width="4" height="12" rx="1"/></g>
  <path d="M16 308 H22 V302 H30 V308 H36" fill="none" stroke="#6B7687" stroke-width="1.5"/>
  <line x1="16" y1="338" x2="42" y2="338" stroke="#1E2636"/>
  <circle cx="28" cy="762" r="7" fill="none" stroke="#6B7687" stroke-width="1.5"/><circle cx="28" cy="762" r="2" fill="#6B7687"/>

  <!-- scope screen -->
  <rect x="72" y="72" width="796" height="420" rx="10" fill="#0A0F18" stroke="#1E2636"/>
  <g clip-path="url(#scr)">
    <g stroke="#151C29" stroke-width="1">
      <line x1="138" y1="72" x2="138" y2="492"/><line x1="205" y1="72" x2="205" y2="492"/><line x1="271" y1="72" x2="271" y2="492"/>
      <line x1="337" y1="72" x2="337" y2="492"/><line x1="404" y1="72" x2="404" y2="492"/><line x1="536" y1="72" x2="536" y2="492"/>
      <line x1="602" y1="72" x2="602" y2="492"/><line x1="669" y1="72" x2="669" y2="492"/><line x1="735" y1="72" x2="735" y2="492"/><line x1="801" y1="72" x2="801" y2="492"/>
      <line x1="72" y1="124" x2="868" y2="124"/><line x1="72" y1="177" x2="868" y2="177"/><line x1="72" y1="229" x2="868" y2="229"/>
      <line x1="72" y1="334" x2="868" y2="334"/><line x1="72" y1="387" x2="868" y2="387"/><line x1="72" y1="439" x2="868" y2="439"/>
    </g>
    <line x1="470" y1="72" x2="470" y2="492" stroke="#222B3A" stroke-width="1"/>
    <line x1="72" y1="282" x2="868" y2="282" stroke="#222B3A" stroke-width="1"/>

    <!-- trigger -->
    <line x1="72" y1="250" x2="868" y2="250" stroke="#F87171" stroke-width="1" stroke-dasharray="4 5" opacity="0.6"/>
    <path d="M72 244 L84 250 L72 256 Z" fill="#F87171"/>

    <!-- CH2 square (amber) -->
    <path d="M80 420 H140 V384 H200 V420 H260 V384 H320 V420 H380 V384 H440 V420 H500 V384 H560 V420 H620 V384 H680 V420 H740 V384 H800 V420 H860"
          fill="none" stroke="#FBBF24" stroke-width="2" stroke-linejoin="round" opacity="0.92"/>
    <!-- CH1 sine (emerald) -->
    <path d="M80 282 Q108 222 136 282 Q164 342 192 282 Q220 222 248 282 Q276 342 304 282 Q332 222 360 282 Q388 342 416 282 Q444 222 472 282 Q500 342 528 282 Q556 222 584 282 Q612 342 640 282 Q668 222 696 282 Q724 342 752 282 Q780 222 808 282 Q836 342 864 282"
          fill="none" stroke="#34D399" stroke-width="2.5" stroke-linecap="round" stroke-linejoin="round" filter="url(#g)"/>
  </g>
  <text x="86" y="92" font-size="13" font-weight="600" fill="#34D399">CH1</text>
  <text x="124" y="92" font-size="13" font-weight="600" fill="#FBBF24">CH2</text>
  <text x="856" y="92" font-size="13" fill="#6B7687" text-anchor="end">100 µs/div</text>
  <text x="86" y="480" font-size="12" fill="#8A94A3">Trig &#9650; CH1 · 1.20 V · rising</text>

  <!-- right panel cards -->
  <!-- horizontal -->
  <rect x="884" y="72" width="372" height="72" rx="12" fill="#10151F" stroke="#1E2636"/>
  <text x="902" y="98" font-size="11" font-weight="600" fill="#6B7687" letter-spacing="0.5">HORIZONTAL</text>
  <text x="902" y="128" font-size="22" font-weight="700" fill="#F4F6F8">100 µs/div</text>
  <text x="1238" y="128" font-size="13" fill="#8A94A3" text-anchor="end">12.5 kpts</text>

  <!-- vertical -->
  <rect x="884" y="156" width="372" height="92" rx="12" fill="#10151F" stroke="#1E2636"/>
  <text x="902" y="182" font-size="11" font-weight="600" fill="#6B7687" letter-spacing="0.5">VERTICAL</text>
  <circle cx="908" cy="206" r="5" fill="#34D399"/><text x="922" y="211" font-size="15" fill="#C7D0DB">CH1</text>
  <text x="1238" y="211" font-size="15" font-weight="600" fill="#F4F6F8" text-anchor="end">1.00 V/div</text>
  <circle cx="908" cy="232" r="5" fill="#FBBF24"/><text x="922" y="237" font-size="15" fill="#C7D0DB">CH2</text>
  <text x="1238" y="237" font-size="15" font-weight="600" fill="#F4F6F8" text-anchor="end">0.50 V/div</text>

  <!-- trigger card -->
  <rect x="884" y="260" width="372" height="84" rx="12" fill="#10151F" stroke="#1E2636"/>
  <text x="902" y="286" font-size="11" font-weight="600" fill="#6B7687" letter-spacing="0.5">TRIGGER</text>
  <text x="902" y="318" font-size="22" font-weight="700" fill="#F4F6F8">Edge &#9650;</text>
  <text x="1238" y="300" font-size="13" fill="#8A94A3" text-anchor="end">Source CH1</text>
  <text x="1238" y="322" font-size="13" fill="#8A94A3" text-anchor="end">Level 1.20 V</text>

  <!-- measurements -->
  <rect x="884" y="356" width="372" height="148" rx="12" fill="#10151F" stroke="#1E2636"/>
  <text x="902" y="382" font-size="11" font-weight="600" fill="#6B7687" letter-spacing="0.5">MEASUREMENTS</text>
  <g>
    <text x="902" y="404" font-size="11" fill="#6B7687">Vpp</text><text x="902" y="424" font-size="18" font-weight="600" fill="#F4F6F8">3.28 V</text>
    <text x="1080" y="404" font-size="11" fill="#6B7687">Frequency</text><text x="1080" y="424" font-size="18" font-weight="600" fill="#F4F6F8">1.00 kHz</text>
    <text x="902" y="450" font-size="11" fill="#6B7687">Vrms</text><text x="902" y="470" font-size="18" font-weight="600" fill="#F4F6F8">1.16 V</text>
    <text x="1080" y="450" font-size="11" fill="#6B7687">Period</text><text x="1080" y="470" font-size="18" font-weight="600" fill="#F4F6F8">1.00 ms</text>
    <text x="902" y="494" font-size="11" fill="#6B7687">Duty</text><text x="948" y="494" font-size="14" font-weight="600" fill="#34D399">50.2%</text>
    <text x="1080" y="494" font-size="11" fill="#6B7687">Rise</text><text x="1124" y="494" font-size="14" font-weight="600" fill="#F4F6F8">12 µs</text>
  </g>

  <!-- spectrum -->
  <rect x="72" y="524" width="796" height="236" rx="12" fill="#0A0F18" stroke="#1E2636"/>
  <text x="86" y="550" font-size="11" font-weight="600" fill="#6B7687" letter-spacing="0.5">SPECTRUM · FFT</text>
  <text x="854" y="550" font-size="11" font-weight="600" fill="#34D399" text-anchor="end">CH1</text>
  <line x1="88" y1="720" x2="852" y2="720" stroke="#1E2636"/>
  <g fill="#34D399">
    <rect x="94" y="710" width="12" height="10" rx="2" opacity="0.35"/>
    <rect x="118" y="706" width="12" height="14" rx="2" opacity="0.35"/>
    <rect x="142" y="568" width="12" height="152" rx="2"/>
    <rect x="166" y="702" width="12" height="18" rx="2" opacity="0.35"/>
    <rect x="190" y="711" width="12" height="9" rx="2" opacity="0.35"/>
    <rect x="214" y="708" width="12" height="12" rx="2" opacity="0.35"/>
    <rect x="238" y="704" width="12" height="16" rx="2" opacity="0.35"/>
    <rect x="262" y="642" width="12" height="78" rx="2" opacity="0.9"/>
    <rect x="286" y="709" width="12" height="11" rx="2" opacity="0.35"/>
    <rect x="310" y="712" width="12" height="8" rx="2" opacity="0.35"/>
    <rect x="334" y="707" width="12" height="13" rx="2" opacity="0.35"/>
    <rect x="358" y="710" width="12" height="10" rx="2" opacity="0.35"/>
    <rect x="382" y="616" width="12" height="104" rx="2" opacity="0.9"/>
    <rect x="406" y="708" width="12" height="12" rx="2" opacity="0.35"/>
    <rect x="430" y="711" width="12" height="9" rx="2" opacity="0.35"/>
    <rect x="454" y="706" width="12" height="14" rx="2" opacity="0.35"/>
    <rect x="478" y="712" width="12" height="8" rx="2" opacity="0.35"/>
    <rect x="502" y="670" width="12" height="50" rx="2" opacity="0.85"/>
    <rect x="526" y="709" width="12" height="11" rx="2" opacity="0.35"/>
    <rect x="550" y="711" width="12" height="9" rx="2" opacity="0.35"/>
    <rect x="574" y="707" width="12" height="13" rx="2" opacity="0.35"/>
    <rect x="598" y="710" width="12" height="10" rx="2" opacity="0.35"/>
    <rect x="622" y="656" width="12" height="64" rx="2" opacity="0.8"/>
    <rect x="646" y="711" width="12" height="9" rx="2" opacity="0.35"/>
    <rect x="670" y="708" width="12" height="12" rx="2" opacity="0.35"/>
    <rect x="694" y="712" width="12" height="8" rx="2" opacity="0.35"/>
    <rect x="718" y="709" width="12" height="11" rx="2" opacity="0.35"/>
    <rect x="742" y="686" width="12" height="34" rx="2" opacity="0.75"/>
    <rect x="766" y="712" width="12" height="8" rx="2" opacity="0.35"/>
    <rect x="790" y="710" width="12" height="10" rx="2" opacity="0.35"/>
    <rect x="814" y="713" width="12" height="7" rx="2" opacity="0.35"/>
    <rect x="838" y="711" width="12" height="9" rx="2" opacity="0.35"/>
  </g>
  <g font-size="11" fill="#6B7687" text-anchor="middle">
    <text x="100" y="738">0</text><text x="268" y="738">1k</text><text x="388" y="738">2k</text>
    <text x="508" y="738">3k</text><text x="628" y="738">4k</text><text x="748" y="738">5k</text>
  </g>

  <!-- decode -->
  <rect x="884" y="524" width="372" height="236" rx="12" fill="#10151F" stroke="#1E2636"/>
  <text x="902" y="550" font-size="11" font-weight="600" fill="#6B7687" letter-spacing="0.5">DECODE · UART</text>
  <text x="1238" y="550" font-size="11" fill="#8A94A3" text-anchor="end">9600 8N1</text>
  <g font-family="'JetBrains Mono','SF Mono',ui-monospace,Menlo,Consolas,monospace">
    <text x="902" y="578" font-size="11" fill="#566072">t (ms)</text>
    <text x="1004" y="578" font-size="11" fill="#566072">hex</text>
    <text x="1090" y="578" font-size="11" fill="#566072">byte</text>
    <line x1="902" y1="588" x2="1238" y2="588" stroke="#1E2636"/>
    <g font-size="14">
      <rect x="894" y="596" width="352" height="28" rx="6" fill="#0E1622"/>
      <text x="902" y="615" fill="#8A94A3">0.00</text><text x="1004" y="615" fill="#C7D0DB">0x48</text><text x="1090" y="615" fill="#34D399">'H'</text>
      <text x="902" y="643" fill="#8A94A3">0.10</text><text x="1004" y="643" fill="#C7D0DB">0x65</text><text x="1090" y="643" fill="#34D399">'e'</text>
      <rect x="894" y="652" width="352" height="28" rx="6" fill="#0E1622"/>
      <text x="902" y="671" fill="#8A94A3">0.21</text><text x="1004" y="671" fill="#C7D0DB">0x6C</text><text x="1090" y="671" fill="#34D399">'l'</text>
      <text x="902" y="699" fill="#8A94A3">0.31</text><text x="1004" y="699" fill="#C7D0DB">0x6C</text><text x="1090" y="699" fill="#34D399">'l'</text>
      <rect x="894" y="708" width="352" height="28" rx="6" fill="#0E1622"/>
      <text x="902" y="727" fill="#8A94A3">0.42</text><text x="1004" y="727" fill="#C7D0DB">0x6F</text><text x="1090" y="727" fill="#34D399">'o'</text>
    </g>
  </g>
</svg>
